<?xml version="1.0" encoding="utf-8"?>
<!-- Generator: Adobe Illustrator 25.4.1, SVG Export Plug-In . SVG Version: 6.00 Build 0)  -->
<svg version="1.1" id="Layer_1" xmlns="http://www.w3.org/2000/svg" xmlns:xlink="http://www.w3.org/1999/xlink" x="0px" y="0px"
	 viewBox="0 0 1366 634" style="enable-background:new 0 0 1366 634;" xml:space="preserve">
<style type="text/css">
	.st0{fill:#FFFFFF;}
	.st1{fill:#333548;}
	.st2{fill:#2874AE;}
	.st3{fill:#E2F2FF;}
	.st4{fill:#FFD500;}
	.st5{fill:#C89726;}
</style>
<path class="st0" d="M1189.9,635c5.9-30.8,9-62.5,9-95c0-279.5-229.7-506.1-512.9-506.1S173,260.5,173,540c0,32.5,3.1,64.2,9,95"/>
<path class="st1" d="M429.1,596.9c-67.9,0-135.8,0.1-203.7,0.1c-8.5,0-17,0-26.2-0.3c-1.3-6.7-1.9-13.1-2.3-19.6
	c-0.7-12.1-1.6-24.2-1.7-36.2c0-8.7,1.2-17.5,1.8-26.2c0.7-10.2,0.9-20.5,2.1-30.7c1.7-13.9,3.3-28,6.5-41.6
	c5.3-22.5,11-44.9,18.9-66.8c8.3-23,18.5-45.1,29.5-66.8c7.2-14.1,15.8-27.6,24.7-40.8c19-28.2,40.4-54.5,65.1-78
	c10.6-10.1,21.1-20.3,32.5-29.3c30.1-23.8,61.7-45,96.5-61.7c20.7-9.9,41.8-18.7,63.6-25.5c21.3-6.6,43.1-11.5,65-16
	c13.5-2.8,27.5-3.8,41.3-5.3c6.9-0.8,13.9-0.9,20.8-1.3c7.8-0.5,15.5-1.5,23.3-1.4c8.3,0.1,16.5,1.1,24.7,1.7
	c12.9,1,25.8,1.7,38.6,3.1c11.8,1.3,23.8,2.5,35.3,5.4c23.6,6,47.2,11.8,70.1,20.3c22.3,8.3,43.9,18.2,64.7,29.3
	c16.6,8.9,32.4,19.4,47.9,30.1c19.2,13.3,37.6,27.8,54.1,44.4c7.5,7.5,15.1,14.9,22.5,22.5c7,7.3,14.1,14.6,20.4,22.5
	c22.4,28.6,42.9,58.4,59.1,91.1c11.2,22.5,21,45.5,28.6,69.3c8.4,26.1,14.5,52.8,18.7,80.1c3.6,24,5.1,48.1,5.4,72.3
	c0.2,18.5-1.8,37.1-2.9,55.6c-62.1,0-124.2,0-186.3-0.1c-55.9,0-111.9,0-168.2-0.5c2.9-15.2-1.6-28-11.6-38.7
	c-10-10.8-23-15-37.8-12.9c-1.9-17.1,0.6-33,5-50c2.6,2.8,4.3,4.7,6.1,6.7c5.7,6.3,12.2,11.4,20.2,14.4c9.1,3.4,18.2,6.6,27.3,10
	c4.5,1.6,9,3.3,13.7,5c-5.6,10.9-10.8,21.1-16.2,31.7c11.9,8.4,23.7,13.1,37.7,10.3c15.8-3.1,26.5-12.4,32.7-27.1
	c4-9.4,3.5-18.9,2.6-28.9c-1.2-14.3-7.1-25.9-17.3-35.5c-4-3.8-8.5-7.3-12.8-10.8c-11.7-9.7-11.4-22.7-8.5-35.6
	c2-9.1,5.9-17.7,9.2-26.5c1.7-4.7,3.7-9.5,9.6-10.4c1.6-0.3,3.3-0.3,4.9-0.4c14.7-0.6,29.4-2,44-1.6c15.7,0.4,31.4,2.4,47.1,3.8
	c5.2,0.5,10.5,2.3,15.5,1.8c15.4-1.5,28-9,38.6-20c3.2-3.3,2.9-6.6-0.1-9.9c-11.2-12.1-22.4-24.2-33.4-36.6c-1.3-1.4-2.1-4.2-1.6-6
	c0.9-3.5,0-6.1-1.6-9.2c-5.5-10.7-14.6-17.6-24.3-23.7c-5.6-3.6-11-6.2-8.1-14.2c0.1-0.4-0.4-0.9-0.5-1.4
	c-1.6-7.9-6.8-12.9-14.1-14.6c-6.9-1.6-13.9,0.2-18.7,6.2c-2.3,2.8-4.4,2.9-7.5,2c-12.4-3.6-24.9-7-37.4-10.4
	c-14-3.8-28.2-5.5-41.6-12.6c-22.6-11.9-47.5-17.3-73.4-15.4c-12.3,0.9-24.7,1.4-36.6,5.8c-4.9,1.8-10.2,4.3-16.2,1.3
	c-6.8-3.4-13.8-6.3-21-8.7c-14.4-4.8-29.2-7.9-44.5-8.3c-8.3-0.2-16.7-0.3-25,0c-6,0.2-12.1,0.7-18,2c-9.8,2.2-19.5,5.2-29.6,7.9
	c-8.8-6.9-17.3-13.8-25.8-20.8c-2.5-2-4.7-3.2-7.4,2.3c1,0.6,2.8,1.5,4.2,2.7c7.2,6.2,14.4,12.4,21.2,18.7c-5.3,2.4-10.3,4.7-15.2,7
	c-22.2,10.7-40.7,26.3-56.1,45.4c-13.8,17.1-25.2,35.8-31.2,57.2c-4.8,17-9.1,34-14.2,50.9c-5.2,17.1-10.2,34.5-17.1,50.9
	c-9.1,21.8-20.2,42.8-30,64.4c-2.4,5.3-4.6,11.4-4.5,17.2c0.2,10,3.1,19.8,8,28.7C415.1,572.9,422.2,584.8,429.1,596.9 M456.3,167
	c7.7,0.7,15.4,1.4,23.1,1.9c1.2,0.1,2.4-1.5,3.6-2.3c-1.1-1.2-2-3.1-3.3-3.4c-4-0.7-8.2-0.9-12.3-1.2c-5.3-0.4-10.5-0.7-15.8-1.2
	c-8.8-0.9-17.6-2-26.4-2.7c-1.3-0.1-2.8,1.7-4.2,2.7c1.1,1.1,2.2,2.9,3.5,3.1C434.8,165.1,445.1,166,456.3,167 M538,197.6
	c-1,0-2.4-0.5-2.9,0c-3.5,3.1-6.8,6.4-8.9,8.4c3,3.6,5.5,7.1,8.5,10.2c0.8,0.8,3.5,0.9,4.3,0.2c3.1-2.7,5.8-5.9,8.8-9.1
	C544.7,204.1,541.6,201.1,538,197.6 M511.5,179c-2.8-1.9-4.8-7.7-9.8-2.1c1.4,1.8,2.4,3.7,3.9,5.1c5.5,5.3,10.9,10.6,16.7,15.6
	c1.4,1.2,4.8,2.2,5.7,1.5c2.6-2.2,0.4-4.3-1.5-6.1C521.7,188.5,516.8,184,511.5,179 M489.6,166.1c-0.6,0.9-1.1,1.9-1.7,2.9
	c2,2.4,4.1,5.3,6.7,7.8c0.6,0.6,2.9,0.4,3.6-0.3c2.4-2.3,4.4-5,6.8-7.8c-0.9-1-2-2.2-3-3.3c-2,0.8-3.8,1.6-5.5,2.3
	c-0.2-0.2-0.3-0.5-0.5-0.7c1.4-1.3,2.8-2.6,4.1-3.8c-2.4-2.4-4.6-4.6-6.7-6.8c-2.4,2.1-4.8,4.1-7.6,6.5
	C487,163.9,488,164.7,489.6,166.1 M402,161.5c2.6,2.2,5.3,4.3,6.8,5.6c2.4-2.5,5.5-5.7,8.3-8.6c-1.9-2-4.9-5.3-6.6-7.1
	c-3.1,2.3-6.2,4.3-9,6.7C401.1,158.5,401.5,160,402,161.5 M345.5,325.3c-2.2,2.8-4.3,5.5-5.4,6.9c2.3,3.4,4.8,7,6.4,9.3
	c3.6-3.6,6.4-6.3,9.1-9c-0.4-1.4-2.5-3.4-4.8-5.1C349.4,326.4,347.7,325.8,345.5,325.3 M1100.2,387.9c1.3-1.2,2.6-2.4,3.6-3.3
	c-1.7-1.9-3.1-3.6-4.6-5.4c-1.6,1.7-3,3.2-4.8,5.1C1096.4,385.8,1098,386.8,1100.2,387.9 M741.6,187.1c3.8,2.5,4.5-1.4,7.1-3.2
	c-2-1.7-3.7-3-5.5-4.5C742.2,181.6,736.5,182.3,741.6,187.1 M251.5,473.1c1.1,1.6,2.1,4.4,3.3,4.5c1.8,0,3.7-1.8,5.9-3
	c-1.3-1.6-2-2.4-2.8-3.2c-0.7-0.8-1.6-1.4-2.7-2.4C253.9,470.3,252.9,471.4,251.5,473.1 M1061.6,513c4.2,4.2,4.5,4.1,8.6-1.6
	c-1.5-1.3-3.1-2.7-5-4.4C1063.8,508.8,1062.5,510.6,1061.6,513 M282.6,541.1c2.7-4.8-3.3-3.3-3.7-5.6c-1.6,1.4-3.1,2.7-4.3,3.8
	c1.3,1.7,2.6,3.4,4.1,5.3C280.1,543.2,281.1,542.4,282.6,541.1 M297.7,480.8c1.8-1.2,3.6-2.5,5.9-4c-2.3-1.7-4.1-3.1-5.7-4.3
	c-1.6,1.4-3.1,2.6-5.1,4.4C294.2,478.2,295.7,479.3,297.7,480.8 M1022.6,268.1c1.1,1,2.2,1.9,3.2,2.9c4.2-3.6,3.7-6.7-0.9-10.1
	C1023.9,263.2,1023,265.4,1022.6,268.1 M346.6,278.1c0.2-0.7,0.9-1.8,0.7-2.1c-3.1-4.2-6.1-2-9.1,0.4c1.5,1.7,2.9,3.3,4.5,5.1
	C344.1,280.2,345.1,279.4,346.6,278.1 M416,353.5c-3.7-4.2-5.5-0.2-8.1,1.5c1.6,1.8,3,3.4,5,5.7C414.4,358,415.4,356,416,353.5
	 M982.5,488.9c-1.3-1.2-2.6-2.4-3.5-3.2c-1.7,1.4-3.3,2.6-5,3.9c1.8,1.7,3.3,3.1,5,4.7C980.6,492.3,981.8,490.7,982.5,488.9
	 M842.4,148.1c0.9-1.1,1.8-2.1,2.9-3.3c-1.7-1.8-3.1-3.2-4.5-4.7c-1.5,1.3-2.8,2.3-5.1,4.2C838.2,146,840,147.3,842.4,148.1
	 M695.4,121.9c-0.9-1.2-1.8-2.5-2.9-4c-1.4,2.1-2.5,3.7-3.5,5.3c1.4,1.8,2.6,3.3,4.5,5.7C694.5,126.2,695.2,124.3,695.4,121.9
	 M246.4,420.9c-0.7-0.6-1.4-1.3-1.5-1.3c-1.6,1.4-3,2.7-4.6,4.1c1.1,1.1,2.4,2.6,3.2,3.4c1.9-1.6,3.3-2.9,4.8-4.2
	C248,422.6,247.5,422,246.4,420.9z"/>
<path class="st2" d="M1173.9,597.5c1-19,3.1-37.5,2.8-56c-0.3-24.1-1.7-48.2-5.4-72.3c-4.1-27.3-10.2-54-18.7-80.1
	c-7.7-23.8-17.4-46.9-28.6-69.3c-16.2-32.7-36.7-62.5-59.1-91.1c-6.2-7.9-13.4-15.2-20.4-22.5c-7.3-7.7-15-15-22.5-22.5
	c-16.5-16.7-34.9-31.1-54.1-44.4c-15.5-10.7-31.3-21.3-47.9-30.1c-20.9-11.1-42.4-21-64.7-29.3c-22.9-8.5-46.5-14.3-70.1-20.3
	c-11.5-2.9-23.4-4.1-35.3-5.4c-12.8-1.4-25.7-2.1-38.6-3.1c-8.2-0.6-16.5-1.7-24.7-1.7c-7.8-0.1-15.5,0.9-23.3,1.4
	c-6.9,0.4-13.9,0.6-20.8,1.3c-13.8,1.5-27.7,2.5-41.3,5.3c-21.8,4.5-43.7,9.4-65,16c-21.8,6.8-42.9,15.6-63.6,25.5
	c-34.8,16.7-66.4,37.9-96.5,61.7c-11.4,9-21.9,19.3-32.5,29.3c-24.7,23.5-46,49.8-65.1,78c-8.9,13.2-17.5,26.7-24.7,40.8
	c-11,21.7-21.2,43.8-29.5,66.8c-7.9,21.9-13.6,44.3-18.9,66.8c-3.2,13.6-4.8,27.7-6.5,41.6c-1.2,10.2-1.4,20.5-2.1,30.7
	c-0.6,8.8-1.8,17.5-1.8,26.2c0.1,12.1,1,24.2,1.7,36.2c0.4,6.4,1,12.9,1.8,19.6c0.3,3.3,0.3,6.3,0.3,9.3c0,7.3-3.8,11.7-10.2,12
	c-6.7,0.2-11.3-3.9-11.8-11.2c-1.1-15.8-2.1-31.6-3-47.4c-0.4-7.4-1.2-14.9-0.9-22.3c0.7-17,1.3-34,3.1-50.9
	c1.5-14.1,3.8-28.3,6.9-42.2c4.8-21.2,9.7-42.4,16.1-63.1c9.3-30.3,22.3-59.3,37.6-87c13.4-24.1,28.1-47.4,45.7-68.7
	c10.5-12.7,21.3-25.2,32.4-37.4c22.6-25.1,48.1-47,76-66c18.1-12.3,36.6-24.3,55.9-34.8c25.5-13.9,52.2-25.4,80-33.9
	c18.9-5.8,37.9-11.3,57.2-15.7c14-3.2,28.5-4.8,42.8-6.2c15.9-1.6,31.9-2.4,47.9-3c12-0.5,24.1-0.8,36.1,0.1
	c17.8,1.3,35.6,4.1,53.4,5.7c25.6,2.3,50,10.1,74.7,16.5c13.5,3.5,26.7,9,39.5,14.6c18.4,8,36.8,16,54.3,25.7
	c21.6,12,42.4,25.4,62.1,40.5c17,12.9,33,26.9,48.3,41.6c19,18.3,36.3,38.1,52.3,59.1c15,19.8,28.5,40.6,40.3,62.3
	c11.5,21.1,21.8,42.9,30.2,65.6c9.2,24.8,16.4,50,22.1,75.7c2.6,11.6,3.8,23.6,5.9,35.4c2.9,16.6,3.8,33.4,4,50.3
	c0.2,16.9,1,33.9,0.8,50.8c-0.2,10.8-1.7,21.7-2.9,32.5c-1,8.6-4,12.9-10.2,13.6c-8.1,0.9-14.2-6.1-12.6-14.2
	C1173.5,601.8,1173.7,599.9,1173.9,597.5z"/>
<path class="st3" d="M576.8,236c9.7-2.7,19.4-5.7,29.3-7.9c5.9-1.3,12-1.8,18-2c8.3-0.3,16.7-0.3,25,0c15.2,0.4,30.1,3.5,44.5,8.3
	c7.2,2.4,14.3,5.3,21,8.7c5.9,3,11.2,0.5,16.2-1.3c11.9-4.4,24.2-4.9,36.6-5.8c25.9-1.9,50.8,3.5,73.4,15.4
	c13.4,7.1,27.6,8.8,41.6,12.6c12.5,3.4,25,6.8,37.4,10.4c3.1,0.9,5.2,0.9,7.5-2c4.8-5.9,11.7-7.8,18.7-6.2
	c7.3,1.7,12.5,6.8,14.1,14.6c0.1,0.5,0.6,1,0.5,1.4c-2.9,8,2.5,10.6,8.1,14.2c9.7,6.1,18.8,13,24.3,23.7c1.6,3.1,2.5,5.7,1.6,9.2
	c-0.4,1.8,0.4,4.6,1.6,6c11,12.3,22.2,24.4,33.4,36.6c3.1,3.3,3.4,6.6,0.1,9.9c-10.6,11-23.2,18.5-38.6,20
	c-5.1,0.5-10.3-1.3-15.5-1.8c-15.7-1.4-31.4-3.4-47.1-3.8c-14.7-0.4-29.4,1-44,1.6c-1.7,0.1-3.3,0.1-4.9,0.4
	c-5.9,0.9-7.9,5.7-9.6,10.4c-3.3,8.8-7.2,17.4-9.2,26.5c-2.8,12.9-3.2,25.9,8.5,35.6c4.3,3.6,8.7,7,12.8,10.8
	c10.2,9.6,16.1,21.2,17.3,35.5c0.9,9.9,1.4,19.5-2.6,28.9c-6.3,14.7-17,23.9-32.7,27.1c-13.9,2.8-25.8-1.9-37.7-10.3
	c5.4-10.6,10.6-20.8,16.2-31.7c-4.7-1.7-9.2-3.3-13.7-5c-9.1-3.3-18.2-6.6-27.3-10c-8-3-14.6-8.1-20.2-14.4c-1.8-2-3.6-3.9-6.1-6.7
	c-4.4,17-6.9,32.9-5,50c14.8-2.1,27.7,2.1,37.8,12.9c9.9,10.6,14.5,23.4,11.1,38.6c-2.2,1.4-4.3,3.3-6.5,3.4
	c-23.9,0.2-47.8,0.2-71.7,0c-2.3,0-4.6-1.7-7.3-3.2c-3.1-6.2-5.8-11.9-8.4-17.7c-9.5-21.1-16.9-42.8-19-66
	c-0.4-4.4-1.3-8.9-0.9-13.3c1.3-14.3,2.2-28.8,8.4-43c-10.7,2.9-20.3,5.6-30.3,8.3c13.1,26.4,18.8,54.2,16.2,83.7
	c17,9.8,25.6,29.8,21.4,48.1c-2.1,1-4.3,2.9-6.4,2.9c-26.2,0.2-52.4,0.2-78.7,0c-2.6,0-5.3-1.9-8.4-3.2c-2.8-4.4-5.8-8.3-7.2-12.6
	c-3-9.5-5.1-19.4-7.6-29.1c-5.8-22.4-13.8-43.8-28.5-62.1c-8.7-10.8-18.2-20.7-29.8-28.9c-0.1,1.5,0,2.6-0.3,3.5
	c-6,19.2-15.7,36.4-29.9,50.7c-8.6,8.7-18.6,16-28.3,23.8c1.2-4.6,2.5-9,4.2-13.4c0.6-1.6,2.1-3,3.4-4.6c5.8-5.7,11.5-11,16.9-16.8
	c8.1-8.7,14.7-18.4,18.8-29.6c2.7-7.1,4.8-14.5,7-21.8c1.4-4.5,6.1-6.7,9.5-3.8c10.4,9.1,21.1,17.8,30.6,27.7
	c14.9,15.6,24.7,34.5,30.9,55.1c4.5,14.9,7.8,30.2,12.2,45.2c2.2,7.7,3.8,9.9,9,9.9c24.3-0.1,48.6-0.1,73.1-0.2
	c0.6-0.2,0.7-0.4,0.6-1.3c-0.2-12.8-5.1-23-15.6-29.8c-5.3-3.5-8.5-7.6-7.4-14.2c0.3-1.8,0-3.6,0.3-5.6c0.4-1.4,0.5-2.7,0.7-4.5
	c-1.4-12.1-1.7-24.1-4.7-35.5c-3-11.2-8.5-21.8-13.1-32.6c-2.5-5.9-1.3-9.1,4.9-10.5c12.4-2.7,24.9-5.3,36.4-10.9
	c1.6-0.8,3.3-1.5,5-2c6.1-1.5,8.5,1,6.9,7.2c-3.2,13.1-7.7,25.8-8.9,39.6c-1.1,13.4-0.8,26.6,2,39.4c4.3,19.8,11.5,38.8,21,56.8
	c1.4,2.7,2.8,4.1,6.2,4c14.7-0.3,29.3-0.1,44-0.1c6.6,0,13.3,0,20.8,0c-1.2-5.6-1.2-11.3-3.6-15.6c-7.2-13.2-18.4-22.3-37.9-18.5
	c-5.7,1.1-8.9-1.4-9-7.3c-0.1-7.2,0-14.4,0-21.6c0-14.6,3.1-28.6,8-42.2c1.7-4.7,6-5.9,9.5-2.4c2.4,2.4,4.1,5.6,6.6,7.9
	c5.7,5.2,11,11.5,17.7,14.7c12,5.7,24.9,9.6,37.5,14c13,4.6,14.7,6.4,13.7,16.3c-0.4,0.5-0.7,0.7-1.3,0.9c-0.4,0.3-0.5,0.6-0.7,1.2
	c-3.8,7.1-7.4,13.8-11.3,20.7c-0.1,0.4,0.1,0.8,0.4,1.4c6.1,1.6,11.6,3.7,18,3.9c13.4,0.4,29-13.9,30.7-26c1-7,0.5-14.4,0.1-21.5
	c-0.9-13.2-8.2-22.7-18-30.9c-6.2-5.2-13-10.5-17.2-17.2c-4.9-7.9-5-17.4-4-27.1c1.8-16.4,8.1-30.9,15.5-45.1c1-1.9,3.3-3.7,5.3-4.2
	c9.2-2.1,18.5-4.9,27.8-5.1c17.7-0.3,35.4,1,53.1,1.8c5.4,0.2,10.7,1.3,16.1,1.7c8.8,0.6,17.6,1.6,26.3,1
	c8.6-0.6,16.2-4.8,22.6-10.8c1.8-1.7,2.9-3.3,0.4-5.6c-2.2-2-4-4.6-6-6.9c-5.4-6.1-10.8-12.3-16.3-18.3c-3.6-3.9-7.5-7.6-11.1-11.5
	c-0.7-0.8-0.7-2.6-0.4-3.8c1.5-4.9,1.1-9.1-2.6-13c-2.9-3-5-7.2-8.3-9.6c-6.2-4.4-13.3-7.5-19.7-11.7c-2.7-1.7-5.8-3.7-3.8-8.4
	c1.2-3,1.7-7.3,0.4-10.1c-1.1-2.4-4.9-4.3-7.9-4.9c-4-0.8-6.9,2.5-8,5.8c-1.8,5.5-4.9,5.4-9.5,4.1c-16-4.6-32-8.8-48.1-13.2
	c-10.8-3-22.2-3.4-32.4-9c-23.8-13.1-49.3-19.6-76.7-18c-12.3,0.8-24.4,2.6-36.2,6.2c-5,1.5-10,4.7-15.6,1.9
	c-14.4-7.2-29.3-12.3-45.2-15.4c-16.2-3.2-32.3-3.1-48.5-2.5c-4.2,0.2-8.5,0.9-12.6,1.7c-8.1,1.6-16.2,3.4-24.5,4.9
	C581.5,240.3,579.2,238.1,576.8,236z"/>
<path class="st1" d="M496,542.2c9.4-7.9,19.4-15.3,28-24c14.1-14.3,23.9-31.5,29.9-50.7c0.3-0.9,0.2-2,0.3-3.5
	c11.6,8.2,21.2,18.1,29.8,28.9c14.7,18.3,22.7,39.7,28.5,62.1c2.5,9.7,4.6,19.5,7.6,29.1c1.4,4.4,4.4,8.2,6.8,12.6
	c-35.3,0.3-70.7,0.3-106.6-0.1c-0.2-5.8,1-11.3,0-16.4c-3.1-15.5-12.8-26.5-26.4-34.6C494.7,544.2,495.3,543.2,496,542.2
	 M571.6,523.1c-0.6-0.5-1.2-1.1-0.9-0.8c-1.8,1.3-3.4,2.4-5.1,3.7c1.4,1.6,2.9,3.3,5,5.6C570.5,528.3,576.5,527.4,571.6,523.1z"/>
<path class="st3" d="M494,545.8c13.6,7.7,23.2,18.7,26.4,34.3c1,5.1-0.2,10.6-0.4,16.4c-2.2,1.4-4.3,3.4-6.5,3.4
	c-25.6,0.2-51.1,0.2-76.7,0c-2.3,0-4.6-1.7-7.3-2.8c-7.3-12.2-14.4-24.2-21.1-36.4c-4.9-8.9-7.9-18.7-8-28.7
	c-0.1-5.7,2.1-11.8,4.5-17.2c9.8-21.5,20.9-42.5,30-64.4c6.9-16.5,11.8-33.8,17.1-50.9c5.1-16.8,9.5-33.9,14.2-50.9
	c6-21.4,17.4-40.1,31.2-57.2c15.4-19.1,33.8-34.7,56.1-45.4c4.9-2.4,9.9-4.6,15.6-7c3.5,2.3,6.3,4.6,8.7,6.9c-1.9,0.7-3.3,1.5-4.8,2
	c-17.8,6.4-33.5,16.5-47.7,28.7c-17.9,15.4-32.8,33.8-41.7,55.6c-8.1,19.6-13,40.6-19.4,60.9c-5.9,18.8-10.8,38-18.1,56.3
	c-9.5,23.5-20.9,46.2-31.8,69.1c-4,8.4-4.5,16.8-1.6,25.5c5,15.1,12.7,28.6,21.5,41.7c2.3,3.4,4.6,4.4,8.5,4.4c21-0.2,42-0.1,63-0.1
	c1.8,0,3.6,0,5.8,0c-0.5-3.5-0.8-6.2-1.3-8.9c-2.4-11.7-8.9-20.1-19.7-25.4C491.5,552.1,492.8,549,494,545.8z"/>
<path class="st1" d="M721.3,596.9c3.7-18.3-4.9-38.3-21.9-48.1c2.5-29.5-3.1-57.3-16.2-83.7c10-2.7,19.6-5.4,30.3-8.3
	c-6.2,14.2-7.1,28.7-8.4,43c-0.4,4.4,0.5,8.8,0.9,13.3c2.1,23.2,9.5,44.9,19,66c2.6,5.7,5.3,11.4,8,17.5
	C729.4,596.9,725.6,597,721.3,596.9z"/>
<path class="st4" d="M455.8,167c-10.7-1-21-1.9-31.3-3.1c-1.3-0.1-2.3-2-3.5-3.1c1.4-0.9,2.9-2.8,4.2-2.7c8.8,0.7,17.6,1.8,26.4,2.7
	c5.2,0.5,10.5,0.8,15.8,1.2c4.1,0.3,8.2,0.4,12.3,1.2c1.2,0.2,2.2,2.2,3.3,3.4c-1.2,0.8-2.4,2.4-3.6,2.3
	C471.7,168.4,464,167.7,455.8,167z"/>
<path class="st4" d="M578,245.8c-2.8-2.3-5.5-4.6-8.7-6.9c-7.5-6.3-14.7-12.6-21.9-18.7c-1.4-1.2-3.2-2.1-4.2-2.7
	c2.7-5.5,5-4.3,7.4-2.3c8.5,7,17,13.9,25.8,20.8c2.7,2.1,5,4.3,7.5,7.1C583.4,248.4,580.8,247.4,578,245.8z"/>
<path class="st4" d="M538.3,197.8c3.3,3.3,6.4,6.3,9.5,9.3c-3,3.2-5.7,6.4-8.8,9.1c-0.8,0.7-3.5,0.6-4.3-0.2c-3-3-5.5-6.5-8.5-10.2
	c2.1-2,5.4-5.3,8.9-8.4C535.7,197,537.1,197.5,538.3,197.8z"/>
<path class="st4" d="M511.7,179.2c5.1,4.8,10,9.3,14.8,13.8c1.9,1.7,4.1,3.9,1.5,6.1c-0.9,0.8-4.3-0.3-5.7-1.5
	c-5.8-5-11.2-10.3-16.7-15.6c-1.5-1.4-2.6-3.3-3.9-5.1C506.7,171.3,508.6,177,511.7,179.2z"/>
<path class="st4" d="M489.3,165.8c-1.3-1.1-2.3-2-3.5-3c2.8-2.4,5.2-4.4,7.6-6.5c2.2,2.2,4.3,4.4,6.7,6.8c-1.3,1.2-2.7,2.5-4.1,3.8
	c0.2,0.2,0.3,0.5,0.5,0.7c1.8-0.8,3.6-1.5,5.5-2.3c1,1.1,2.1,2.3,3,3.3c-2.4,2.8-4.4,5.5-6.8,7.8c-0.7,0.7-3,0.9-3.6,0.3
	c-2.5-2.5-4.7-5.4-6.7-7.8C488.5,167.9,489,167,489.3,165.8z"/>
<path class="st4" d="M401.8,161.3c-0.3-1.3-0.7-2.8-0.3-3.2c2.8-2.3,5.9-4.4,9-6.7c1.6,1.8,4.7,5.1,6.6,7.1
	c-2.8,2.9-5.9,6.1-8.3,8.6C407.3,165.9,404.7,163.7,401.8,161.3z"/>
<path class="st5" d="M345.8,325.1c1.9,0.6,3.6,1.2,5,2.2c2.3,1.7,4.3,3.6,4.8,5.1c-2.8,2.7-5.5,5.5-9.1,9c-1.6-2.3-4.1-5.9-6.4-9.3
	C341.1,330.8,343.3,328,345.8,325.1z"/>
<path class="st5" d="M1099.9,387.9c-1.9-1.1-3.5-2.1-5.5-3.5c1.8-1.9,3.2-3.4,4.8-5.1c1.5,1.8,2.9,3.4,4.6,5.4
	C1102.8,385.5,1101.5,386.7,1099.9,387.9z"/>
<path class="st5" d="M741.3,186.8c-4.9-4.5,0.9-5.2,1.9-7.4c1.8,1.5,3.4,2.8,5.5,4.5C746.1,185.6,745.4,189.6,741.3,186.8z"/>
<path class="st5" d="M251.7,472.8c1.2-1.4,2.2-2.5,3.3-3.9c1.2,1,2,1.7,2.7,2.4c0.8,0.8,1.5,1.7,2.8,3.2c-2.2,1.2-4.1,3-5.9,3
	C253.6,477.5,252.6,474.7,251.7,472.8z"/>
<path class="st5" d="M1061.4,512.7c1.1-2.1,2.4-3.9,3.7-5.7c2,1.7,3.5,3.1,5,4.4C1066.1,517.1,1065.8,517.2,1061.4,512.7z"/>
<path class="st5" d="M282.3,541.3c-1.3,1.1-2.2,1.9-3.7,3.2c-1.5-1.9-2.8-3.6-4.1-5.3c1.3-1.1,2.7-2.4,4.3-3.8
	C279.3,537.8,285.3,536.3,282.3,541.3z"/>
<path class="st5" d="M297.4,480.7c-1.7-1.3-3.1-2.5-4.7-3.7c2-1.8,3.5-3,5.1-4.4c1.6,1.2,3.4,2.5,5.7,4.3
	C301.3,478.3,299.5,479.6,297.4,480.7z"/>
<path class="st5" d="M1022.4,267.9c0.6-2.4,1.5-4.6,2.5-7c4.7,3.5,5.1,6.5,0.9,10.1C1024.8,270,1023.7,269.1,1022.4,267.9z"/>
<path class="st5" d="M346.3,278.3c-1.2,1.1-2.2,1.9-3.6,3.2c-1.6-1.8-3-3.4-4.5-5.1c3-2.4,5.9-4.6,9.1-0.4
	C347.5,276.3,346.9,277.4,346.3,278.3z"/>
<path class="st5" d="M416.2,353.8c-0.8,2.2-1.9,4.2-3.3,6.9c-2-2.3-3.4-3.8-5-5.7C410.5,353.3,412.3,349.3,416.2,353.8z"/>
<path class="st5" d="M982.8,489c-1,1.7-2.2,3.3-3.8,5.3c-1.7-1.6-3.2-3-5-4.7c1.7-1.3,3.2-2.5,5-3.9
	C979.8,486.5,981.2,487.7,982.8,489z"/>
<path class="st5" d="M842.1,148.3c-2.1-1-3.9-2.3-6.4-4.1c2.3-1.9,3.6-2.9,5.1-4.2c1.4,1.5,2.8,2.9,4.5,4.7
	C844.2,146,843.3,147,842.1,148.3z"/>
<path class="st5" d="M695.7,122.1c-0.5,2.1-1.2,4-2.2,6.8c-1.9-2.4-3.1-4-4.5-5.7c1.1-1.6,2.1-3.2,3.5-5.3
	C693.6,119.4,694.5,120.6,695.7,122.1z"/>
<path class="st5" d="M246.7,421.2c0.8,0.8,1.3,1.4,1.7,1.8c-1.5,1.3-3,2.6-4.8,4.2c-0.8-0.8-2.2-2.3-3.2-3.4c1.6-1.4,3-2.7,4.6-4.1
	C245,419.7,245.7,420.3,246.7,421.2z"/>
<path class="st2" d="M577.6,245.9c3.2,1.5,5.7,2.5,6.5-2.5c8.2-2.1,16.3-4,24.4-5.6c4.2-0.8,8.4-1.6,12.6-1.7
	c16.2-0.6,32.4-0.6,48.5,2.5c15.9,3.1,30.9,8.2,45.2,15.4c5.6,2.8,10.6-0.3,15.6-1.9c11.8-3.6,23.9-5.4,36.2-6.2
	c27.4-1.7,52.9,4.9,76.7,18c10.2,5.6,21.6,6,32.4,9c16,4.4,32.1,8.7,48.1,13.2c4.6,1.3,7.7,1.4,9.5-4.1c1.1-3.3,4-6.6,8-5.8
	c2.9,0.6,6.8,2.5,7.9,4.9c1.3,2.8,0.8,7.1-0.4,10.1c-2,4.8,1.2,6.7,3.8,8.4c6.4,4.1,13.5,7.3,19.7,11.7c3.4,2.3,5.4,6.5,8.3,9.6
	c3.8,3.9,4.1,8.1,2.6,13c-0.4,1.1-0.3,3,0.4,3.8c3.6,4,7.5,7.6,11.1,11.5c5.5,6,10.9,12.2,16.3,18.3c2,2.3,3.8,4.8,6,6.9
	c2.5,2.3,1.4,3.9-0.4,5.6c-6.4,6-14,10.2-22.6,10.8c-8.7,0.6-17.6-0.5-26.3-1c-5.4-0.3-10.7-1.4-16.1-1.7
	c-17.7-0.8-35.4-2.1-53.1-1.8c-9.3,0.2-18.6,3-27.8,5.1c-2,0.4-4.3,2.3-5.3,4.2c-7.4,14.2-13.8,28.7-15.5,45.1
	c-1,9.6-0.9,19.2,4,27.1c4.1,6.7,11,12,17.2,17.2c9.8,8.2,17.1,17.7,18,30.9c0.5,7.2,0.9,14.5-0.1,21.5c-1.7,12.1-17.2,26.4-30.7,26
	c-6.4-0.2-11.9-2.3-18-4.2c-0.2-0.8-0.2-1-0.2-1.2c3.6-6.8,7.3-13.5,11.3-20.6c0.4-0.3,0.9-0.4,1.2-0.2c2.4,2.4,4.5,4.6,6,6.1
	c2.3-2.3,4.6-4.6,7-7c-1.8-2-4-4.7-6-6.9c-2.3,2.1-4.3,3.9-6.3,5.7c0.9-9.6-0.8-11.5-13.8-16c-12.6-4.4-25.5-8.3-37.5-14
	c-6.7-3.2-12-9.5-17.7-14.7c-2.5-2.3-4.2-5.5-6.6-7.9c-3.5-3.5-7.8-2.4-9.5,2.4c-4.9,13.7-8,27.7-8,42.2c0,7.2-0.1,14.4,0,21.6
	c0.1,5.9,3.3,8.5,9,7.3c19.5-3.8,30.7,5.3,37.9,18.5c2.4,4.3,2.4,9.9,3.6,15.6c-7.5,0-14.2,0-20.8,0c-14.7,0-29.3-0.2-44,0.1
	c-3.4,0.1-4.8-1.3-6.2-4c-9.5-18-16.7-37-21-56.8c-2.8-12.8-3.1-26-2-39.4c1.2-13.8,5.7-26.5,8.9-39.6c1.5-6.2-0.9-8.7-6.9-7.2
	c-1.7,0.4-3.4,1.2-5,2c-11.6,5.6-24,8.2-36.4,10.9c-6.2,1.4-7.4,4.6-4.9,10.5c4.6,10.8,10.1,21.4,13.1,32.6
	c3,11.3,3.3,23.3,4.4,35.4c-2.3-1.1-4.1-2.6-6-4.2c0.7,0.7,1.3,1.3,2,2c-2.1,2.1-4.2,4.1-6.3,6.2c-0.6-0.6-1.2-1.2-1.8-1.8
	c2.2,2.5,4.4,5,6.3,7.1c2-1.8,3.6-3.2,5.3-4.7c0,1.8,0.3,3.7,0,5.5c-1.1,6.6,2,10.7,7.4,14.2c10.5,6.8,15.4,16.9,15.4,29.9
	c-0.4,0.7-0.6,0.9-0.7,1.1c-24.3,0.1-48.6,0.1-72.9,0.2c-5.2,0-6.8-2.2-9-9.9c-4.3-15-7.7-30.3-12.2-45.2
	c-6.2-20.6-16-39.4-30.9-55.1c-9.5-9.9-20.2-18.7-30.6-27.7c-3.4-2.9-8.1-0.7-9.5,3.8c-2.2,7.3-4.3,14.7-7,21.8
	c-4.2,11.1-10.8,20.9-18.8,29.6c-5.3,5.7-11,11.1-17.2,16.6c-0.4-1.6-0.5-3.3,0-4.7c9.8-29.4,19.7-58.7,29.5-88.1
	c4.7-14.1,9.6-28.2,14.2-42.4c0.4-1.4,0.1-3,0.1-4.5c-0.5,0-1,0-1.4-0.1c-2.5,6.8-5,13.6-7.4,20.5c-10.8,32-21.4,63.9-32.2,95.9
	c-3.5,10.3-7.3,20.4-11.3,30.8c-6.6,5.9-16.2,8.2-20.3,18.7c4.6,1.5,8.6,2.9,12.6,4.6c0.4,1.7,0.7,3.1,1.4,5.9
	c1.1-2.4,1.5-3.3,1.9-4.2c10.9,5,17.4,13.4,19.8,25.1c0.6,2.7,0.8,5.5,1.3,8.9c-2.3,0-4.1,0-5.8,0c-21,0-42-0.1-63,0.1
	c-3.9,0-6.2-1-8.5-4.4c-8.8-13.1-16.6-26.6-21.5-41.7c-2.9-8.7-2.4-17,1.6-25.5c10.9-22.9,22.3-45.6,31.8-69.1
	c7.4-18.2,12.2-37.4,18.1-56.3c6.4-20.3,11.3-41.3,19.4-60.9c9-21.8,23.8-40.2,41.7-55.6c14.2-12.2,29.9-22.3,47.7-28.7
	C574.3,247.4,575.8,246.6,577.6,245.9 M861,326.3c0-1.3,0.5-3.1-0.1-3.7c-2.1-2.1-4.7-3.8-7.1-5.7c0.4,0.5,0.7,1,1.1,1.5
	c-2.4,2-4.8,4.1-7.2,6.1c2.1,2,4.8,4.4,6.7,6.1c2.8-1.5,4.7-2.6,6.6-2.9c1.6,1.2,3.1,2.7,4.8,3.7c21.3,11.2,42.6,22.4,63.9,33.5
	c0.7,0.4,1.9,0,2.9,0c-0.4-0.9-0.6-2.2-1.3-2.7c-3.5-2.1-7.1-4-10.6-5.9c-14.4-7.5-28.8-15.1-43.3-22.4
	C872.1,331.2,866.4,329.3,861,326.3 M551.3,382.7c1.6-2.1,3.3-4.3,5.1-6.7c-0.8-0.9-2.1-2.4-3.4-3.8c1.6-1.8,3.3-3.3,4.3-5.2
	c8.4-14.9,16.6-29.8,24.8-44.7c0.6-1.2,0.5-2.8,0.8-4.2c-0.5-0.1-1-0.3-1.4-0.4c-9.9,17.6-19.9,35.1-29.9,52.8
	c-0.7-0.4-1.5-0.8-1.7-1c-2.8,2.3-5.3,4.5-8.4,7.1c3.7,2.2,7.2,4.2,10.6,7.1c2.5,6.1,5,12.3,7.6,18.4c5.1,11.7,9.7,23.8,15.7,35
	c2.9,5.5,1.8,13.6,10.1,16.5c-2.2,2.3-3.9,4.2-5.6,6c2.1,1.9,4.5,4.2,7.1,6.6c2.6-2.1,5-4.1,6.6-5.4c-4.5-6.3-9.5-11.5-12.4-17.7
	c-9-18.9-17.2-38.1-25.8-57.2C554.8,384.8,553.2,384,551.3,382.7 M600.1,254.5c1.9,1.2,3.7,2.9,5.8,3.4c24.5,6.1,49.1,12,73.7,18
	c6.8,1.6,13.5,3.6,20.3,4.9c1.8,0.3,5-0.6,5.7-2c1.3-2.6-1.3-3.4-3.5-3.9c-4.4-1-8.9-2-13.3-3c-27.8-6.7-55.5-13.3-83.2-20.2
	C602.7,250.9,601.5,251.7,600.1,254.5 M619.8,317.9c-4.3-1.5-8.5-3.2-12.9-4.3c-1.3-0.3-3,1-4.5,1.6c0.8,1.4,1.2,3.3,2.3,3.9
	c2.4,1.3,5.1,1.9,7.7,2.7c17.4,5.5,34.8,11,52.2,16.5c0.9,0.3,2,0.8,2.8,0.6c1.2-0.4,2.9-1.1,3.2-2.1c0.3-0.8-0.8-2.7-1.8-3.2
	c-3.1-1.4-6.3-2.5-9.5-3.5C646.5,326.1,633.5,322,619.8,317.9 M812,471.6c1.8,0.7,3.9,1,5.2,2.2c5.3,4.7,10.5,9.6,15.5,14.6
	c8.7,8.8,17.2,17.9,25.9,26.8c2.1,2.1,4.7,3.8,7,5.6c0.4-0.5,0.8-0.9,1.2-1.4c-1.3-1.6-2.5-3.4-4-4.9
	c-11.1-11.2-22.4-22.4-33.5-33.6c-3.9-3.9-7.7-7.8-11.8-12c0.3-0.4,1.4-1.6,3-3.4c-2.2-1.4-4.2-2.6-6.3-3.8c0.3-0.4,1-1.2,1.2-1.4
	c-1.7-1.8-3.1-3.3-4.4-4.8c-1.5,1.3-3.1,2.7-4,3.5c0,2.5,0,4.6,0,8C807.9,467.7,809.7,469.3,812,471.6 M806.7,307.9
	c-23-7.5-46.1-15-69.1-22.6c-0.3,0.9-0.6,1.8-0.9,2.7c3.3,1.1,6.7,2.2,10,3.3c31.1,10.1,62.2,20.1,93.3,30.2
	c1.8,0.6,3.7,0.5,5.6,0.8c0.2-0.6,0.3-1.3,0.5-1.9C833.3,316.2,820.4,312.1,806.7,307.9 M657.5,537c-5.6-6.6-11.2-13.3-16.9-19.9
	c-13.2-15.3-26.4-30.5-39.8-45.7c-1.4-1.6-3.4-2.5-5.1-3.7c-0.4,0.4-0.7,0.8-1.1,1.2c3,3.4,5.9,6.7,8.9,10.1
	c10,11.7,20.1,23.4,30.1,35.1c6,7,11.7,14.2,18,20.8c2.5,2.6,4.1,7.1,9.7,7.1C659.9,540.1,659,538.8,657.5,537 M694.5,320
	c-1.1,1.8-2.6,3.5-3.2,5.5c-0.5,1.7,0.2,3.6,0.4,5.5c1.7-0.8,4.1-1.1,4.9-2.4c6.2-10.1,12.1-20.4,17.8-30.7c0.6-1.1-0.6-3.3-1-5
	c-1.4,0.6-3.6,0.7-4.2,1.7C704.4,302.7,699.7,311.1,694.5,320 M715.9,275.4c-2.6,2-5.2,4-7.8,5.9c0.6-0.4,1.2-0.7,1.8-1.1
	c2.6,3.3,5.1,6.6,7.7,9.9c1.7,2.1,3.1,3,5.1-0.2c1.7-2.6,4.6-4.4,6.7-6.8c0.7-0.8,1.1-2.8,0.7-3.2c-3.3-3.4-6.9-6.6-10.5-10.1
	C718.4,271.5,717.2,273.1,715.9,275.4 M814.1,443.1c-0.4-9.4-0.8-18.9-1-28.3c-0.4-12.3-0.6-24.5-1.1-36.8c-0.1-1.4-1-2.8-1.5-4.2
	c-0.6,0.1-1.1,0.3-1.7,0.4c1.1,26.2,1.5,52.4,3.5,78.5c0.7,0,1.4,0,2.1,0C814.4,449.8,814.4,446.9,814.1,443.1 M587,278.4
	c-0.3,4.9-0.9,9.8-0.8,14.7c0,1.3,2.1,2.6,3.2,3.9c0.9-1.3,2.5-2.6,2.5-3.9c0.5-9.2,0.9-18.4,1-27.7c0-1.4-1.7-2.9-2.7-4.3
	c-1.1,1.4-2.9,2.8-3,4.3C586.7,269.4,587,273.4,587,278.4 M661.4,553.9c1.8,1.2,2.8,4.9,5.9,2.2c3-2.6,5.7-5.5,8.6-8.4
	c-2.9-3.3-5.9-6.6-8.8-9.8c-3.2,3.5-6,6.7-8.3,9.3C659.7,549.4,660.4,551.3,661.4,553.9 M952.5,368c-3.1-2.6-6.2-5.3-9.6-8.2
	c-2.7,3-5.3,6.1-7.7,8.8c2.9,3.6,5.5,6.9,8.1,10.1C947.2,374.7,950.1,371.6,952.5,368 M580.6,308.9c2.6,3.3,5.2,6.6,8,10
	c2.8-2.6,5.6-4.9,8-7.6c0.5-0.6,0.4-2.5-0.2-3.2c-2.3-2.9-4.9-5.6-7.3-8.3c0.4,0.5,0.7,1.1,1.1,1.6
	C587.2,303.8,584.2,306.1,580.6,308.9 M685,348.5c3.4-2.3,6.9-4.7,10.9-7.4c-4-3.4-7.2-6.2-10.1-8.7c-3,2.9-5.8,5.5-8.8,8.4
	C679.5,343.2,682,345.6,685,348.5 M816.5,356c-0.4,1.1-0.7,2.3-1.1,3.4c4-2,6.8-4.6,9.7-7c6.6-5.6,13.3-11.2,19.8-16.9
	c1.8-1.6,3-3.7,4.5-5.6c-0.5-0.4-1-0.8-1.5-1.2C837.6,337.6,827.3,346.5,816.5,356 M872,517.6c-2.6,2.3-5.2,4.6-7.8,7
	c8.3,9.9,7.7,7.2,14,0.1C876.3,522.4,874.5,520.2,872,517.6 M802.1,363.6c2.5,2.6,4.9,5.3,7.4,7.9c7.4-7.7,7.4-7.7,0.4-13.8
	C807.4,359.5,805,361.3,802.1,363.6 M472.1,577.6c-1.7,1.5-3.3,3.1-4.9,4.5c2,2.1,3.6,4.8,5.9,6.2c4.1,2.5,3-4.2,6.2-4
	c0.1,0,0.3-0.1,0.4-0.3c0.4-0.7,1.4-1.9,1.2-2.1c-2.1-2.4-4.3-4.6-6.6-6.9C473.7,575.7,473.1,576.4,472.1,577.6 M584.6,252
	c1.8,2,3.5,4.1,4.6,5.3c2.6-2.4,5-4.6,7.7-7.1c-2.3-1.9-4.9-4-7.1-5.8c-2.1,1.9-4,3.5-5.8,5.3C583.6,250,584,250.9,584.6,252
	 M490,564.6c-1.6-2-3.3-4-4.6-5.6c-3.2,2.8-5.6,4.9-8.3,7.3c2.6,2,5.3,4,8.1,6.1C487,569.9,488.8,567.5,490,564.6z"/>
<path class="st4" d="M490.2,555.6c-0.5,1.3-0.9,2.2-2,4.6c-0.7-2.8-1-4.2-1.2-6.2c2.7-8.1,5.2-15.6,7.8-23
	c3.7-10.2,7.5-20.3,11-30.6c10.8-31.9,21.4-63.9,32.2-95.9c2.3-6.9,4.9-13.6,7.4-20.5c0.5,0,1,0,1.4,0.1c0,1.5,0.4,3.1-0.1,4.5
	c-4.7,14.2-9.5,28.3-14.2,42.4c-9.9,29.4-19.7,58.7-29.5,88.1c-0.5,1.5-0.5,3.1-0.3,4.9c-0.7,1.7-2.1,3-2.8,4.7
	c-1.7,4.3-3,8.8-4.2,13.4c-0.4,1.2-1,2.2-1.7,3.5C492.8,549,491.5,552.1,490.2,555.6z"/>
<path class="st4" d="M853.1,535.3c2.1-2.1,4.2-3.9,6.4-6c1.9,2.2,4.2,4.9,6,6.9c-2.4,2.4-4.8,4.7-7,7c-1.5-1.6-3.6-3.8-6-6.3
	c-0.3-0.3-0.4-0.7-0.4-0.7C852.3,535.9,852.6,535.7,853.1,535.3z"/>
<path class="st4" d="M689.2,539.1c-1.9,1.6-3.5,3-5.5,4.8c-1.9-2.1-4.1-4.6-6.3-7.1c0.6,0.6,1.2,1.2,1.8,1.8
	c2.1-2.1,4.2-4.1,6.3-6.2c-0.7-0.7-1.3-1.3-2-2c1.9,1.5,3.7,3.1,5.9,4.6C689.7,536.3,689.6,537.6,689.2,539.1z"/>
<path class="st2" d="M851.7,536.1c0.3,0,0.3,0.4,0.3,0.6c0,0.2-0.4,0.2-0.7,0.2C851.3,536.7,851.4,536.4,851.7,536.1z"/>
<path class="st2" d="M839.7,558c0.2,0.1,0.2,0.3,0.2,0.8C839.8,558.8,839.6,558.4,839.7,558z"/>
<path class="st2" d="M711.3,589.9c-0.1-0.2,0.1-0.4,0.4-0.7C712,589.4,711.9,589.7,711.3,589.9z"/>
<path class="st5" d="M571.8,523.3c4.7,4.1-1.3,4.9-1.3,8.1c-2.1-2.3-3.5-4-5-5.6c1.7-1.2,3.3-2.4,5.1-3.7
	C570.4,522,571,522.5,571.8,523.3z"/>
<path class="st4" d="M600.1,254.1c1.4-2.4,2.6-3.1,5.7-2.4c27.7,7,55.5,13.6,83.2,20.2c4.4,1.1,8.8,2.1,13.3,3
	c2.2,0.5,4.8,1.3,3.5,3.9c-0.7,1.3-3.9,2.3-5.7,2c-6.8-1.3-13.6-3.2-20.3-4.9c-24.6-6-49.2-11.9-73.7-18
	C603.8,257.4,602,255.7,600.1,254.1z"/>
<path class="st4" d="M620.2,318c13.4,4.1,26.3,8.1,39.3,12.2c3.2,1,6.5,2.1,9.5,3.5c1,0.4,2.1,2.4,1.8,3.2c-0.4,1-2,1.7-3.2,2.1
	c-0.8,0.2-1.9-0.3-2.8-0.6c-17.4-5.5-34.8-11-52.2-16.5c-2.6-0.8-5.4-1.4-7.7-2.7c-1.2-0.6-1.6-2.6-2.3-3.9c1.5-0.6,3.2-1.9,4.5-1.6
	C611.3,314.7,615.5,316.4,620.2,318z"/>
<path class="st4" d="M811.8,471.3c-2.1-2-3.9-3.6-4.7-4.4c0-3.4,0-5.4,0-8c0.9-0.8,2.5-2.2,4-3.5c1.3,1.4,2.7,3,4.4,4.8
	c-0.2,0.2-0.9,1-1.2,1.4c2.1,1.3,4,2.5,6.3,3.8c-1.6,1.8-2.6,3-3,3.4c4.1,4.2,7.9,8.1,11.8,12c11.2,11.2,22.4,22.4,33.5,33.6
	c1.5,1.5,2.7,3.2,4,4.9c-0.4,0.5-0.8,0.9-1.2,1.4c-2.4-1.9-4.9-3.5-7-5.6c-8.7-8.9-17.2-18-25.9-26.8c-5-5.1-10.2-9.9-15.5-14.6
	C815.9,472.6,813.8,472.3,811.8,471.3z"/>
<path class="st4" d="M807.1,308c13.3,4.1,26.1,8.2,39,12.3c-0.2,0.6-0.3,1.3-0.5,1.9c-1.9-0.2-3.8-0.2-5.6-0.8
	c-31.1-10-62.2-20.1-93.3-30.2c-3.3-1.1-6.7-2.2-10-3.3c0.3-0.9,0.6-1.8,0.9-2.7C760.6,292.9,783.7,300.4,807.1,308z"/>
<path class="st4" d="M552.1,383.1c1.1,1,2.8,1.7,3.3,2.9c8.6,19.1,16.8,38.3,25.8,57.2c2.9,6.1,7.9,11.3,12.4,17.7
	c-1.7,1.4-4.1,3.3-6.6,5.4c-2.6-2.4-5-4.7-7.1-6.6c1.6-1.8,3.4-3.7,5.6-6c-8.3-2.9-7.2-11-10.1-16.5c-6-11.3-10.6-23.3-15.7-35
	c-2.6-6.1-5.1-12.2-7.6-18.7C552.1,383,552.1,383.1,552.1,383.1z"/>
<path class="st4" d="M657.8,537.3c1.2,1.6,2.2,2.8,3.6,4.7c-5.6,0-7.2-4.5-9.7-7.1c-6.3-6.6-12.1-13.8-18-20.8
	c-10-11.7-20.1-23.4-30.1-35.1c-2.9-3.4-5.9-6.7-8.9-10.1c0.4-0.4,0.7-0.8,1.1-1.2c1.7,1.2,3.8,2.2,5.1,3.7
	c13.3,15.2,26.6,30.4,39.8,45.7C646.3,523.7,651.9,530.4,657.8,537.3z"/>
<path class="st4" d="M552.1,383c-3.5-2.1-7-4.1-10.7-6.3c3.2-2.7,5.7-4.8,8.4-7.1c0.2,0.1,1,0.6,1.7,1c10-17.7,20-35.3,29.9-52.8
	c0.5,0.1,1,0.3,1.4,0.4c-0.2,1.4-0.1,3-0.8,4.2c-8.2,15-16.4,29.9-24.8,44.7c-1.1,1.9-2.8,3.4-4.3,5.2c1.3,1.4,2.6,2.8,3.4,3.8
	c-1.8,2.4-3.5,4.5-4.7,6.9C552.1,383.1,552.1,383,552.1,383z"/>
<path class="st4" d="M694.7,319.7c5-8.6,9.6-17,14.6-25.2c0.6-1,2.7-1.2,4.2-1.7c0.4,1.7,1.6,3.8,1,5c-5.7,10.4-11.7,20.6-17.8,30.7
	c-0.8,1.3-3.2,1.6-4.9,2.4c-0.2-1.8-0.9-3.8-0.4-5.5C691.9,323.5,693.4,321.8,694.7,319.7z"/>
<path class="st4" d="M716,275c1.2-1.9,2.4-3.5,3.6-5.2c3.6,3.4,7.2,6.6,10.5,10.1c0.4,0.5,0,2.5-0.7,3.2c-2.1,2.4-5,4.2-6.7,6.8
	c-2,3.1-3.4,2.2-5.1,0.2c-2.6-3.3-5.2-6.6-7.7-9.9c-0.6,0.4-1.2,0.7-1.8,1.1C710.7,279.3,713.3,277.4,716,275z"/>
<path class="st4" d="M860.9,327.1c5.5,2.2,11.2,4.1,16.5,6.8c14.5,7.3,28.9,14.9,43.3,22.4c3.6,1.9,7.2,3.8,10.6,5.9
	c0.7,0.4,0.9,1.8,1.3,2.7c-1,0-2.1,0.4-2.9,0c-21.3-11.1-42.6-22.3-63.9-33.5c-1.8-0.9-3.2-2.4-4.9-4
	C861,327,860.9,327.1,860.9,327.1z"/>
<path class="st4" d="M814.2,443.5c0.2,3.4,0.2,6.3,0.2,9.3c-0.7,0-1.4,0-2.1,0c-2.1-26.1-2.4-52.3-3.5-78.5c0.6-0.1,1.1-0.3,1.7-0.4
	c0.5,1.4,1.5,2.8,1.5,4.2c0.4,12.3,0.7,24.5,1.1,36.8C813.3,424.2,813.7,433.7,814.2,443.5z"/>
<path class="st3" d="M494.5,531.1c-2.2,7.3-4.8,14.8-7.5,22.5c-4.2-1-8.1-2.3-12.7-3.9C478.4,539.3,487.9,537.1,494.5,531.1z"/>
<path class="st4" d="M587,277.9c0-4.5-0.3-8.5,0.1-12.4c0.2-1.5,2-2.9,3-4.3c0.9,1.4,2.7,2.9,2.7,4.3c-0.1,9.2-0.4,18.5-1,27.7
	c-0.1,1.3-1.7,2.6-2.5,3.9c-1.1-1.3-3.2-2.6-3.2-3.9C586.1,288.2,586.7,283.3,587,277.9z"/>
<path class="st4" d="M661.2,553.5c-0.9-2.2-1.6-4.1-2.4-6.4c2.3-2.6,5.2-5.8,8.3-9.3c2.9,3.2,5.9,6.6,8.8,9.8
	c-2.9,2.9-5.6,5.8-8.6,8.4C664.2,558.8,663.2,555,661.2,553.5z"/>
<path class="st4" d="M952.7,368.3c-2.6,3.3-5.5,6.3-9.4,10.5c-2.6-3.2-5.2-6.5-8.1-10.1c2.4-2.7,5-5.8,7.7-8.8
	C946.3,362.7,949.4,365.4,952.7,368.3z"/>
<path class="st4" d="M580.9,308.6c3.3-2.6,6.3-4.9,9.4-7.2c-0.4-0.5-0.7-1.1-1.1-1.6c2.5,2.8,5.1,5.4,7.3,8.3
	c0.6,0.7,0.7,2.6,0.2,3.2c-2.5,2.6-5.3,5-8,7.6C585.9,315.5,583.3,312.2,580.9,308.6z"/>
<path class="st4" d="M684.8,348.3c-2.8-2.7-5.3-5.1-7.8-7.5c3-2.9,5.8-5.5,8.8-8.4c2.9,2.5,6.2,5.3,10.1,8.7
	C691.9,343.9,688.5,346.2,684.8,348.3z"/>
<path class="st4" d="M816.8,355.7c10.5-9.2,20.8-18.1,31.1-27.1c0.5,0.4,1,0.8,1.5,1.2c-1.5,1.9-2.7,4.1-4.5,5.6
	c-6.5,5.7-13.2,11.3-19.8,16.9c-2.9,2.5-5.7,5-9.7,7C815.8,358.3,816.1,357.1,816.8,355.7z"/>
<path class="st4" d="M861,327c-1.9,1-3.9,2.1-6.7,3.6c-1.9-1.7-4.6-4.2-6.7-6.1c2.4-2,4.8-4.1,7.2-6.1c-0.4-0.5-0.7-1-1.1-1.5
	c2.4,1.9,5,3.6,7.1,5.7c0.6,0.6,0.1,2.5,0.1,4.1C860.9,327.1,861,327,861,327z"/>
<path class="st4" d="M872.3,517.8c2.1,2.4,4,4.6,5.9,6.9c-6.4,7.1-5.8,9.8-14-0.1C866.8,522.2,869.4,519.9,872.3,517.8z"/>
<path class="st4" d="M802.4,363.3c2.7-2,5-3.8,7.6-5.7c7,6.1,7,6.1-0.4,13.8C807.1,368.9,804.6,366.2,802.4,363.3z"/>
<path class="st4" d="M472.3,577.3c0.8-0.9,1.4-1.6,2-2.2c2.2,2.3,4.5,4.5,6.6,6.9c0.2,0.2-0.8,1.4-1.2,2.1c-0.1,0.1-0.3,0.3-0.4,0.3
	c-3.1-0.2-2.1,6.6-6.2,4c-2.3-1.4-3.9-4.1-5.9-6.2C468.7,580.7,470.4,579.2,472.3,577.3z"/>
<path class="st4" d="M584.3,251.8c-0.3-0.9-0.7-1.8-0.4-2.1c1.8-1.8,3.7-3.4,5.8-5.3c2.3,1.9,4.9,4,7.1,5.8
	c-2.7,2.5-5.1,4.7-7.7,7.1C588.1,256.1,586.3,254.1,584.3,251.8z"/>
<path class="st4" d="M490.3,564.8c-1.5,2.7-3.3,5.1-5.1,7.5c-2.7-2.1-5.5-4.1-8.1-6.1c2.8-2.4,5.1-4.4,8.3-7.3
	C486.7,560.5,488.4,562.5,490.3,564.8z"/>
<path d="M151,635"/>
</svg>
