<?xml version="1.0" encoding="utf-8"?>
<!-- Generator: Adobe Illustrator 25.4.1, SVG Export Plug-In . SVG Version: 6.00 Build 0)  -->
<svg version="1.1" id="Layer_1" xmlns="http://www.w3.org/2000/svg" xmlns:xlink="http://www.w3.org/1999/xlink" x="0px" y="0px"
	 viewBox="0 0 1038 760.5" style="enable-background:new 0 0 1038 760.5;" xml:space="preserve">
<style type="text/css">
	.st0{clip-path:url(#SVGID_00000114757045070292632720000014107928343267857801_);fill:#0F7BB6;}
	.st1{fill:#0F7BB6;}
	.st2{fill:#FFD105;}
	.st3{font-family:'QuireSansPro-Heavy';}
	.st4{font-size:110px;}
	.st5{fill:#8BB8E8;}
	.st6{font-family:'QuireSansPro-Medium';}
	.st7{font-size:36px;}
</style>
<image style="overflow:visible;" width="1066" height="634" xlink:href="planetarium_website/src/assets/astro_logo_cropped.png"  transform="matrix(1 0 0 1 -16.4745 -16.9573)">
</image>
<g>
	<g>
		<defs>
			<rect id="SVGID_1_" x="30.3" y="608.5" width="356.2" height="116"/>
		</defs>
		<clipPath id="SVGID_00000105402162789326453560000008655832028906090380_">
			<use xlink:href="#SVGID_1_"  style="overflow:visible;"/>
		</clipPath>
		<path style="clip-path:url(#SVGID_00000105402162789326453560000008655832028906090380_);fill:#0F7BB6;" d="M30.7,690.5
			c-0.5-3.8-0.2-9.3-0.2-12l5.7-65h21.3l-5.8,65.6c-1.3,14.2,4.3,24.3,18.5,24.3c14.5,0,22.1-10.3,23.4-22.9l6-67h21.3l-5.9,66.2
			c-2.4,25.5-19.3,44.6-46.6,44.6C47,724.2,33.3,710.4,30.7,690.5"/>
	</g>
	<path class="st1" d="M125.7,668.5c2.8-31.2,23.8-57.1,60.2-57.1c9.6,0,18.8,2.2,28,8.1l-2.4,25.8c-8.4-11-18.4-12.8-27.6-12.8
		c-22.6,0-35,15.7-36.8,35.6c-1.7,19.4,8.3,35.1,30.2,35.1c9.6,0,19.7-2.8,30.3-13.4l-2.4,26.5c-10.3,5.6-20,8.2-29.7,8.2
		C139.6,724.5,123.1,697.7,125.7,668.5"/>
	<path class="st1" d="M230.8,613.5h21.2l-7.7,88.3h30.4c2.1,0,9.4-0.1,11.4-0.2c-0.1,1.1-1.9,20.4-1.9,20.4h-62.9L230.8,613.5
		L230.8,613.5z"/>
	<path class="st1" d="M346.9,608.5l-1.5,0l-58.1,113.4h22.6l8.2-17.2H359l5.1,17.2h22.5L346.9,608.5L346.9,608.5z M341.4,654
		c0.7-1.5,1.3-3.4,1.6-4.5c0,0,0.3,0,0.3,0c0.1,1.4,0.4,3,0.8,4.6c1.2,4.9,9.4,32.4,9.4,32.4h-26.8
		C326.8,686.4,341.1,654.7,341.4,654"/>
</g>
<text transform="matrix(1 0 0 1 394.0013 721.6202)" class="st2 st3 st4">Planetarium</text>
<text transform="matrix(1 0 0 1 401.8018 632.1892)" class="st5 st6 st7">Astronomy and Astrophysics</text>
</svg>
